<svg width="128" height="128" viewBox="0 0 128 128" fill="none" xmlns="http://www.w3.org/2000/svg">
<rect width="128" height="128" fill="#007CBA"/>
<rect x="13" y="21.5" width="102" height="85" fill="#007CBA" stroke="white" stroke-dasharray="3 3"/>
<path d="M85.5 106H115.5V114.5C115.5 115.052 115.052 115.5 114.5 115.5H86.5C85.9477 115.5 85.5 115.052 85.5 114.5V106Z" fill="white"/>
<path d="M91.0031 111.165H88.7855V113.5H87.8281V107.99H91.3285V108.762H88.7855V110.401H91.0031V111.165ZM93.0995 113.5H92.1459V107.99H93.0995V113.5ZM98.6471 113.5H97.6897L95.2338 109.591V113.5H94.2764V107.99H95.2338L97.6973 111.914V107.99H98.6471V113.5ZM99.7786 113.5V107.99H101.406C101.893 107.99 102.324 108.099 102.7 108.316C103.078 108.533 103.371 108.84 103.578 109.239C103.785 109.638 103.888 110.094 103.888 110.609V110.885C103.888 111.407 103.783 111.866 103.574 112.263C103.367 112.659 103.071 112.964 102.685 113.178C102.301 113.393 101.861 113.5 101.364 113.5H99.7786ZM100.736 108.762V112.736H101.36C101.862 112.736 102.247 112.579 102.515 112.266C102.784 111.951 102.922 111.499 102.927 110.912V110.605C102.927 110.007 102.797 109.551 102.537 109.235C102.277 108.92 101.9 108.762 101.406 108.762H100.736ZM108.062 111.04H105.799V112.736H108.444V113.5H104.842V107.99H108.418V108.762H105.799V110.283H108.062V111.04ZM111.248 111.377H110.181V113.5H109.224V107.99H111.161C111.797 107.99 112.288 108.133 112.633 108.418C112.979 108.703 113.152 109.115 113.152 109.655C113.152 110.024 113.062 110.333 112.883 110.582C112.707 110.83 112.459 111.02 112.141 111.154L113.379 113.451V113.5H112.353L111.248 111.377ZM110.181 110.609H111.165C111.488 110.609 111.74 110.528 111.922 110.367C112.104 110.203 112.194 109.979 112.194 109.697C112.194 109.402 112.11 109.173 111.941 109.012C111.774 108.851 111.525 108.767 111.192 108.762H110.181V110.609Z" fill="#007CBA"/>
<path d="M12.5 13.5C12.5 12.9477 12.9477 12.5 13.5 12.5H31.5C32.0523 12.5 32.5 12.9477 32.5 13.5V22H12.5V13.5Z" fill="white"/>
<path d="M19.3816 18.6377L20.2292 14.4902H21.1791L19.9076 20H18.9918L17.9436 15.9774L16.8727 20H15.9531L14.6816 14.4902H15.6315L16.4867 18.6301L17.5387 14.4902H18.3409L19.3816 18.6377ZM24.7968 18.7172H22.6625L22.2159 20H21.2207L23.302 14.4902H24.161L26.2461 20H25.2471L24.7968 18.7172ZM22.9312 17.9452H24.5281L23.7296 15.6595L22.9312 17.9452ZM28.1041 17.1013L29.3718 14.4902H30.4314L28.5847 17.9717V20H27.6235V17.9717L25.7731 14.4902H26.8364L28.1041 17.1013Z" fill="#007CBA"/>
<path d="M12.5 13.5C12.5 12.9477 12.9477 12.5 13.5 12.5H31.5C32.0523 12.5 32.5 12.9477 32.5 13.5V22H12.5V13.5Z" fill="white"/>
<path d="M19.3816 18.6377L20.2292 14.4902H21.1791L19.9076 20H18.9918L17.9436 15.9774L16.8727 20H15.9531L14.6816 14.4902H15.6315L16.4867 18.6301L17.5387 14.4902H18.3409L19.3816 18.6377ZM24.7968 18.7172H22.6625L22.2159 20H21.2207L23.302 14.4902H24.161L26.2461 20H25.2471L24.7968 18.7172ZM22.9312 17.9452H24.5281L23.7296 15.6595L22.9312 17.9452ZM28.1041 17.1013L29.3718 14.4902H30.4314L28.5847 17.9717V20H27.6235V17.9717L25.7731 14.4902H26.8364L28.1041 17.1013Z" fill="#007CBA"/>
<mask id="mask0" mask-type="alpha" maskUnits="userSpaceOnUse" x="57" y="54" width="31" height="21">
<rect x="88" y="74.0002" width="31" height="20" transform="rotate(-180 88 74.0002)" fill="#C4C4C4"/>
</mask>
<g mask="url(#mask0)">
<path d="M86.08 75.1161L77.0726 57.1014L68.543 65.6311M68.543 65.6311L58.9558 75.2185M68.543 65.6311L73.1832 74.8432" stroke="white" stroke-width="3.5"/>
</g>
<mask id="mask1" mask-type="alpha" maskUnits="userSpaceOnUse" x="40" y="54" width="31" height="20">
<rect x="40" y="54" width="31" height="20" fill="#C4C4C4"/>
</mask>
<g mask="url(#mask1)">
<path d="M41.92 52.884L50.9274 70.8987L59.457 62.369M59.457 62.369L69.0442 52.7817M59.457 62.369L54.8168 53.157" stroke="white" stroke-width="3.5"/>
</g>
</svg>
